<svg width="160" height="213" viewBox="0 0 160 213" fill="none" xmlns="http://www.w3.org/2000/svg">
<path d="M113.665 212.673H43.1451C33.2532 212.673 25.2366 204.655 25.2366 194.765V113.604H131.576V194.765C131.574 204.655 123.555 212.673 113.665 212.673Z" fill="#577149"/>
<path d="M25.2343 145.647C31.4506 148.259 39.7865 149.284 48.2839 142.962C65.3076 130.299 63.3439 150.925 76.7671 150.269C90.1903 149.613 90.1903 130.299 104.921 138.81C116.237 145.347 121.966 151.162 131.574 148.45V113.602H25.2343V145.647Z" fill="#F0EA8D"/>
<path d="M71.5299 113.602C71.5299 113.602 52.8694 28.4832 119.328 5.23926C119.328 5.23926 121.226 83.1569 83.9703 113.602H71.5299Z" fill="#92AE73"/>
<path d="M46.3205 113.602C46.3205 113.602 12.2826 95.2685 0 40.2678C0 40.2678 57.6569 47.142 69.1144 113.602H46.3205Z" fill="#92AE73"/>
<path d="M122.601 113.602C124.892 110.655 152.065 104.762 159.922 50.7443C159.922 50.7443 114.088 63.1847 99.0281 113.602H122.601Z" fill="#92AE73"/>
<path d="M57.7799 113.602C57.7799 113.602 17.1853 59.5841 39.4464 0C39.4464 0 85.563 25.2077 77.0521 113.602H57.7799Z" fill="#68863F"/>
<path d="M105.904 113.602C105.904 113.602 138.315 89.0482 136.022 29.793C136.022 29.793 91.1714 35.0304 81.6776 113.602H105.904Z" fill="#68863F"/>
</svg>
