<svg xmlns="http://www.w3.org/2000/svg" width="712" height="989" viewBox="0 0 712 989" fill="none"><path d="M649.36 229.47H301.25V634.6H649.36V229.47Z" fill="white"/><path d="M649.36 350.36H301.25V362.67H649.36V350.36Z" fill="#577149"/><path d="M287.82 213.83V650.23H662.8V213.83H287.82ZM649.36 634.6H301.25V229.47H649.36V634.6Z" fill="#577149"/><path d="M245.55 759.32H110.45L83.71 988.33H101.05L125.62 776.66H230.38L254.94 988.33H272.29L245.55 759.32Z" fill="#D2A465"/><path d="M254.95 739.31H101.05V759.32H254.95V739.31Z" fill="#68863F"/><path d="M234.66 813.5H121.34L119.33 830.85H236.67L234.66 813.5Z" fill="#68863F"/><path d="M216.91 739.31H139.09C128.18 739.31 119.33 730.46 119.33 719.55V629.99H236.67V719.55C236.67 730.46 227.82 739.31 216.91 739.31Z" fill="#577149"/><path d="M119.33 665.35C126.19 668.23 135.39 669.36 144.76 662.39C163.55 648.41 161.38 671.17 176.19 670.45C191 669.73 191 648.41 207.26 657.81C219.75 665.02 226.07 671.44 236.67 668.44V629.99H119.33V665.35Z" fill="#F0EA8D"/><path d="M170.41 629.99C170.41 629.99 149.82 536.07 223.16 510.42C223.16 510.42 225.25 596.4 184.14 629.99H170.41Z" fill="#92AE73"/><path d="M142.6 629.99C142.6 629.99 105.04 609.76 91.48 549.07C91.48 549.07 155.11 556.66 167.75 629.99H142.6Z" fill="#92AE73"/><path d="M226.77 629.99C229.3 626.74 259.28 620.24 267.95 560.63C267.95 560.63 217.37 574.36 200.76 629.99H226.77Z" fill="#92AE73"/><path d="M155.24 629.99C155.24 629.99 110.45 570.38 135.01 504.64C135.01 504.64 185.9 532.45 176.51 629.99H155.24Z" fill="#68863F"/><path d="M208.34 629.99C208.34 629.99 244.11 602.9 241.58 537.51C241.58 537.51 192.09 543.29 181.61 629.99H208.34Z" fill="#68863F"/><path d="M154.16 385.85H49.04V404.82H154.16V385.85Z" fill="#FFC571"/><path d="M148.74 404.82H54.46V408.88C54.46 434.92 75.56 456.03 101.6 456.03C127.64 456.03 148.74 434.92 148.74 408.88V404.82Z" fill="#D2A465"/><path d="M82.91 385.85C81.78 379.54 78.75 373.04 73.9 368.76C63.81 359.84 47.23 363.84 37.47 371.23C8.1 393.46 31.86 434.11 23.72 463.52C21.9 470.12 17.32 477.69 11.97 482.04" stroke="#577149" stroke-miterlimit="10" stroke-linecap="round" stroke-linejoin="round"/><path d="M99.16 385.85C99.16 383.41 140.07 329.77 174.21 395.34" stroke="#577149" stroke-miterlimit="10" stroke-linecap="round" stroke-linejoin="round"/><path d="M86.97 385.85C86.97 385.85 84.18 333.02 21.23 334.92" stroke="#577149" stroke-miterlimit="10" stroke-linecap="round" stroke-linejoin="round"/><path d="M95.37 385.85C95.37 385.85 105.12 311.89 174.21 321.37" stroke="#577149" stroke-miterlimit="10" stroke-linecap="round" stroke-linejoin="round"/><path d="M91.31 385.85C91.31 385.85 103.5 324.35 54.46 291.57" stroke="#577149" stroke-miterlimit="10" stroke-linecap="round" stroke-linejoin="round"/><path d="M37.47 371.23C37.47 371.23 25.2 357.69 15.98 371.23C15.98 371.23 22.08 378.13 37.47 371.23Z" fill="#68863F"/><path d="M50.45 364.9C50.45 364.9 56.35 375.29 47.95 381.52C47.95 381.52 41.29 371.59 50.45 364.9Z" fill="#68863F"/><path d="M28.82 380.32C28.82 380.32 40.1 379.89 40.1 395.34C40.1 395.34 25.94 397.27 28.82 380.32Z" fill="#68863F"/><path d="M25.04 387.86C25.04 387.86 19.24 398.04 6.77 393.44C6.77 393.44 11.34 379.03 25.04 387.86Z" fill="#68863F"/><path d="M22.76 397.74C22.76 397.74 34.31 396.15 37.47 409.97C37.47 409.97 24.38 413.15 22.76 397.74Z" fill="#68863F"/><path d="M22.28 406.44C22.28 406.44 7.86 403.74 6.77 418.91C6.77 418.91 20.87 420.49 22.28 406.44Z" fill="#68863F"/><path d="M23.01 418.96C23.01 418.96 35.76 413.76 40.1 428.12C40.1 428.12 28.67 434.19 23.01 418.96Z" fill="#68863F"/><path d="M24.14 429.31C24.14 429.31 10.84 424.06 6.77 439.23C6.77 439.23 21.37 440.51 24.14 429.31Z" fill="#68863F"/><path d="M25.13 439.27C25.13 439.27 38.47 437.33 41.45 451.42C41.45 451.42 28.04 453.68 25.13 439.27Z" fill="#68863F"/><path d="M25.46 451.55C25.46 451.55 17.61 445.46 10.56 456.03C10.56 456.03 19.23 461.16 25.46 451.55Z" fill="#68863F"/><path d="M24.51 460.11C24.51 460.11 32.51 457.65 35.76 472.55C35.76 472.55 23.54 474.78 24.51 460.11Z" fill="#68863F"/><path d="M21.23 470.02C21.23 470.02 10.3 461.96 2.71 472.67C2.71 472.67 12.74 478.82 21.23 470.02Z" fill="#68863F"/><path d="M11.97 482.04C11.97 482.04 2.98 486.1 8.94 499.65C8.94 499.65 17.71 492.87 11.97 482.04Z" fill="#68863F"/><path d="M18.02 475.34C18.02 475.34 14.44 485.56 26.73 490.84C26.73 490.84 29.35 476.45 18.02 475.34Z" fill="#68863F"/><path d="M55.54 363.88C55.54 363.88 45.25 365.53 40.1 353.61C40.1 353.61 54.18 350.31 55.54 363.88Z" fill="#68863F"/><path d="M69.94 366.05C69.94 366.05 59.61 364.99 59.33 378.27C59.33 378.27 68.62 378.22 69.94 366.05Z" fill="#68863F"/><path d="M33.29 335.26C33.29 335.26 18.69 336.54 18.02 347.38C18.02 347.38 31.09 349.42 33.29 335.26Z" fill="#68863F"/><path d="M43.03 336.76C43.03 336.76 33.22 332.43 37.47 320.53C37.47 320.53 47.59 323.7 43.03 336.76Z" fill="#68863F"/><path d="M52.46 339.57C52.46 339.57 37.56 335.93 37.47 347.48C37.47 347.48 48.85 350.73 52.46 339.57Z" fill="#68863F"/><path d="M60.6 343.47C60.6 343.47 51.75 335.46 57.17 324.62C57.17 324.62 67.01 330.9 60.6 343.47Z" fill="#68863F"/><path d="M68.74 349.36C68.74 349.36 59.68 340.77 52.47 349.36C52.47 349.36 59.19 356.76 68.74 349.36Z" fill="#68863F"/><path d="M76.13 357.41C76.13 357.41 70.1 345 78.3 338.71C78.3 338.71 86.69 346.31 76.13 357.41Z" fill="#68863F"/><path d="M80.91 365.21C80.91 365.21 76.45 354.75 65.57 357.41C65.57 357.41 70.51 366.79 80.91 365.21Z" fill="#68863F"/><path d="M84.6 374.3C84.14 374.73 79.66 364.68 86.97 356.98C86.97 356.98 93.88 365.73 84.6 374.3Z" fill="#68863F"/><path d="M21.23 334.92C21.23 334.92 6.5 338.44 0 326.52C0 326.52 17.74 321.59 21.23 334.92Z" fill="#68863F"/><path d="M28.43 334.95C28.43 334.95 17.53 328.14 21.23 315.68C21.23 315.68 35.1 322.55 28.43 334.95Z" fill="#68863F"/><path d="M106.52 376.67C106.06 376.06 116.77 370.68 124.09 378.27C124.09 378.27 114.42 387.26 106.52 376.67Z" fill="#68863F"/><path d="M112.96 371.19C112.5 371.63 104.85 363.61 114.07 352.65C114.07 352.65 123.78 360.98 112.96 371.19Z" fill="#68863F"/><path d="M124.43 364.9C124.43 364.9 138.72 360.57 143.33 373.21C143.33 373.21 129.64 378.09 124.43 364.9Z" fill="#68863F"/><path d="M132.21 363.05C132.21 363.05 127.61 352.19 140.89 347.48C140.89 347.48 146.92 357.92 132.21 363.05Z" fill="#68863F"/><path d="M148.44 366.03C148.44 366.03 149.02 353.57 165 356.98C165 356.98 164.02 367.63 148.44 366.03Z" fill="#68863F"/><path d="M154.41 369.76C154.41 369.76 148.15 371.3 154.41 381.83C154.41 381.83 161.43 378.04 154.41 369.76Z" fill="#68863F"/><path d="M163.83 379.11C163.83 379.11 170.42 367.16 183.42 376.91C183.42 376.91 176.04 384.29 163.83 379.11Z" fill="#68863F"/><path d="M168.71 385.85C168.71 385.85 160.5 381.52 163.83 400.21C163.83 400.21 170.79 398.04 168.71 385.85Z" fill="#68863F"/><path d="M174.21 395.34C174.21 395.34 185.32 390.46 190.47 404.82C190.47 404.82 177.19 408.41 174.21 395.34Z" fill="#68863F"/><path d="M54.46 291.57C55.15 291.14 47.07 280.73 33.29 286.15C33.29 286.15 43.89 298.07 54.46 291.57Z" fill="#68863F"/><path d="M62.77 297.87C62.77 297.87 52.39 292.65 44.21 301.59C44.21 301.59 56.99 308.51 62.77 297.87Z" fill="#68863F"/><path d="M68.97 303.8C68.97 303.8 60.32 288.32 73.24 281.81C73.24 281.81 81.86 295.44 68.97 303.8Z" fill="#68863F"/><path d="M77.72 314.88C77.72 314.88 69.08 304.3 55.54 311.34C55.54 311.34 65.23 323.02 77.72 314.88Z" fill="#68863F"/><path d="M82.82 323.8C82.82 323.8 78.3 310.62 86.97 303.8C86.97 303.8 96.01 315.12 82.82 323.8Z" fill="#68863F"/><path d="M86.13 331.43C86.13 331.43 78.83 321.75 68.74 323.8C68.74 323.8 70.66 334.45 86.13 331.43Z" fill="#68863F"/><path d="M89.44 342.04C89.44 342.04 89.41 328.43 99.16 327.74C99.16 327.74 101.67 341.31 89.44 342.04Z" fill="#68863F"/><path d="M102.13 362.88C102.04 363.53 91.54 358.07 95.37 345.55C95.37 345.55 104.56 345.05 102.13 362.88Z" fill="#68863F"/><path d="M113.6 343.47C113.21 342.94 122.54 336.27 131.44 344.4C131.44 344.4 121.81 354.74 113.6 343.47Z" fill="#68863F"/><path d="M109.51 349.1C107.77 351.31 96.18 336.39 107.56 325.63C107.56 325.63 119.35 336.59 109.51 349.1Z" fill="#68863F"/><path d="M122.87 334.05C122.87 334.05 114.47 323.47 124.43 313.34C124.43 313.34 132.48 319.36 122.87 334.05Z" fill="#68863F"/><path d="M132.21 327.74C132.21 327.74 144.68 323.16 148.74 334.05C148.74 334.05 136.26 340.07 132.21 327.74Z" fill="#68863F"/><path d="M142.18 323.52C142.18 323.52 137.36 309.53 149.83 303.8C149.83 303.8 156.75 314.01 142.18 323.52Z" fill="#68863F"/><path d="M151.63 321.33C151.63 321.33 151.96 333.98 166.07 335.26C166.07 335.26 167.51 321.01 151.63 321.33Z" fill="#68863F"/><path d="M165 320.53C165 320.53 161.75 308.09 178.82 307.82C178.82 307.82 181.8 315.9 165 320.53Z" fill="#68863F"/><path d="M174.21 321.37C173.81 320.31 191.01 316.01 194.53 331.15C194.53 331.15 179.55 335.61 174.21 321.37Z" fill="#68863F"/><path d="M101.6 -48V300.08L76.06 404.82L101.6 456.02L127.59 403.96L137.72 439.18V449.8" stroke="#3F363B" stroke-miterlimit="10" stroke-linecap="round" stroke-linejoin="round"/><path d="M101.6 300.08L127.59 403.96" stroke="#3F363B" stroke-miterlimit="10" stroke-linecap="round" stroke-linejoin="round"/><path d="M76.06 404.82L64.64 438.12V449.8" stroke="#3F363B" stroke-miterlimit="10" stroke-linecap="round" stroke-linejoin="round"/><path d="M101.6 456.02V466.32" stroke="#3F363B" stroke-miterlimit="10" stroke-linecap="round" stroke-linejoin="round"/><path d="M680.5 882.86H594.52V988.32H680.5V882.86Z" fill="#FFC571"/><path d="M710.66 794.25C708.4 785.4 702.16 777.35 693.6 774.19C693.73 761.61 692.61 746.67 681.8 740.22C679.93 739.11 677.86 738.33 676.13 737.01C673.82 735.26 672.28 732.7 670.22 730.68C661.87 722.51 648.19 725.17 636.97 728.39C628.41 730.85 618.69 734.33 615.64 742.71C598.55 743.8 585 762.66 589.42 779.21C582.35 784.02 575.35 790.34 574 798.78C572.88 805.77 575.87 812.79 575.61 819.86C575.36 826.4 572.34 832.57 571.77 839.09C570.83 849.99 576.72 860.18 582.41 869.52C585.39 874.41 589.54 880.26 594.52 882.86H680.5C686.96 877.59 692.8 870.02 689.32 862.63C700.94 859.82 709.22 847.15 707.14 835.38C706.71 832.99 705.92 830.62 706.04 828.2C706.17 825.71 707.25 823.39 708.17 821.07C711.53 812.59 712.91 803.09 710.66 794.25Z" fill="#577149"/><path d="M431.96 537.51L423.29 516.2L404.11 515.15L405.77 535.53L365.9 565.37L382.37 585.1L439.43 551.78L431.96 537.51Z" fill="#DDB3A4"/><path d="M297.84 560.63C299.47 558.19 344.99 540.31 344.99 540.31L406.49 614C382.18 633.85 354.1 648.58 323.96 657.32L321.96 657.9L297.84 560.63Z" fill="#FFC571"/><path d="M224.69 595.31C225.77 594.23 300.22 570.2 300.22 570.2L303.9 585.06L226.59 602.62L224.69 595.31Z" fill="#FFC571"/><path d="M348.42 544.42C348.42 544.42 371.09 509.88 396.74 540.31C422.38 570.75 379.4 581.55 379.4 581.55L374.51 575.69C374.51 575.69 411.53 568.22 390.58 543.83C369.64 519.45 352.3 549.07 352.3 549.07L348.42 544.42Z" fill="#FFC571"/><path d="M300.22 570.2C300.22 570.2 337.83 562.49 352.3 549.07" stroke="#577149" stroke-miterlimit="10" stroke-linecap="round" stroke-linejoin="round"/><path d="M428.66 566.26C428.66 566.26 394.03 705.31 390.78 717.23C387.53 729.15 426.54 876.54 450.38 931.27C450.38 931.27 493.73 926.93 513.78 906.89L459.05 739.31L470.97 692.3V549.07L428.66 566.26Z" fill="#92AE73"/><path d="M526.79 545.46C526.79 545.46 552.25 602.9 550.09 682.01C547.92 761.12 546.84 952.95 546.84 952.95C546.84 952.95 501.32 958.91 483.98 952.95L470.97 692.31V549.07L526.79 545.46Z" fill="#92AE73"/><path d="M475.89 790.87L482.54 924.2L473.47 926.87C473.47 926.87 475.15 820.13 473.47 783.44L475.89 790.87Z" fill="#577149"/><path d="M470.97 692.31L465.15 640.25L468.06 703.79L470.97 692.31Z" fill="#577149"/><path d="M307.95 607.32C307.23 608.68 307 610.23 306.8 611.76C306.31 615.59 306.06 619.44 306.03 623.3C306 626.01 306.17 628.94 307.87 631.05C309.58 633.16 312.42 633.96 315.12 634.33C318.55 634.8 322.18 634.76 325.32 633.28C326.2 632.87 327.06 632.32 327.59 631.5C328.1 630.72 328.25 629.78 328.38 628.86C329.02 624.41 329.28 619.9 329.17 615.41C329.12 613.51 329 611.58 328.35 609.8C327.71 608.01 326.47 606.36 324.73 605.61C323.7 605.17 322.56 605.06 321.44 604.97C317.38 604.66 310.3 602.87 307.95 607.32Z" fill="#FCB285"/><path d="M395.1 544.31C390.97 544.5 386.87 545.1 382.9 546.11C381.58 546.45 380.18 546.89 379.42 547.9C378.96 548.53 378.8 549.29 378.69 550.04C377.62 557.76 381.33 565.31 384.95 572.39C386.24 574.92 388.03 577.79 391.12 578.18C392.33 578.32 393.55 578.05 394.72 577.74C398.13 576.87 401.47 575.76 404.69 574.45C406.82 573.58 409.12 572.38 409.68 570.35C409.92 569.45 409.78 568.51 409.62 567.6C408.37 560.47 406.11 553.49 402.92 546.86C402.63 546.24 402.3 545.61 401.71 545.19C401.1 544.75 400.29 544.61 399.52 544.51C396.68 544.15 393.8 544.12 390.95 544.42" fill="#FFD2C2"/><path d="M507.28 507.53L505.65 515.66L431.96 537.51L393.48 549.07C393.48 549.07 394.57 570.02 397.82 570.21C401.07 570.39 519.74 553.59 528.95 551.96C538.16 550.34 547.43 538.51 554.94 506.81C545.03 508.18 528.89 509.38 507.28 507.53Z" fill="#FFD2C2"/><path d="M493.33 400.24C493.33 400.24 536 408.64 547.37 420.42C558.75 432.21 566.34 504.64 566.34 504.64C566.34 504.64 545.21 510.78 507.27 507.53L505.65 515.66L431.96 537.51L423.29 516.2L393.48 514.57C393.48 514.57 399.45 469.05 401.61 456.32C403.78 443.58 412.45 414.87 461.22 400.24H493.33V400.24Z" fill="#F0EA8D"/><path d="M505.65 515.66L507.28 507.53C507.28 507.53 501.43 414.86 529.82 410.53L521.75 407.66L513.78 405.24C513.78 405.24 496.44 421.92 493.73 460.93H435.21C435.21 460.93 433.31 420.66 447.26 405.25C447.24 405.25 447.23 405.26 447.21 405.26L438.71 409.26L432.33 412.95C432.32 412.96 432.31 412.97 432.3 412.97C432.26 413.06 412.46 451.78 423.29 516.19L431.96 537.51L505.65 515.66Z" fill="#92AE73"/><path d="M439.81 483.68C439.81 483.68 472.33 486.94 490.21 483.68C490.21 483.68 496.98 513.49 466.91 515.66C436.83 517.82 439 493.17 439.81 483.68Z" fill="#577149"/><path d="M431.96 537.51L505.65 515.66L507.28 507.53C507.28 507.53 507.22 506.67 507.15 505.13L437.66 530.68L430.29 533.42L431.96 537.51Z" fill="#577149"/><path d="M477.47 412.97C468.53 412.97 461.22 405.65 461.22 396.71V383.44C461.22 374.5 468.53 367.18 477.47 367.18C486.41 367.18 493.73 374.5 493.73 383.44V396.71C493.73 405.65 486.41 412.97 477.47 412.97Z" fill="#FFD2C2"/><path d="M477.47 367.18C468.53 367.18 461.22 374.5 461.22 383.44V392.68C465.21 393.67 469.38 394.2 473.68 394.2C480.79 394.2 487.56 392.76 493.73 390.17V383.44C493.73 374.5 486.42 367.18 477.47 367.18Z" fill="#DDB3A4"/><path d="M553.61 352.24C521.64 332.15 563.63 311.64 533.02 286.72C502.4 261.79 488.42 291.15 488.42 291.15C506.55 299.2 519.2 317.35 519.2 338.46C519.2 357.45 508.95 374 493.71 383C493.72 383.15 493.73 383.29 493.73 383.44V396.71C493.73 397.92 493.59 399.1 493.34 400.24C493.45 400.26 536.01 408.65 547.38 420.42C549.18 422.29 550.88 425.68 552.48 430.05C593.07 416.8 585.58 372.33 553.61 352.24Z" fill="black"/><path d="M504.03 375.06C524.24 354.85 524.24 322.08 504.03 301.88C483.83 281.67 451.06 281.67 430.85 301.88C410.64 322.08 410.64 354.85 430.85 375.06C451.06 395.27 483.83 395.27 504.03 375.06Z" fill="#FFD2C2"/><path d="M519.2 338.46C519.2 309.88 496.03 286.72 467.45 286.72C438.93 286.72 415.81 309.78 415.7 338.27C426.47 333.2 435.2 324.54 440.35 313.82C448.42 331.89 466.54 344.49 487.61 344.49C491.1 344.49 494.49 344.1 497.79 343.44C498.86 339.73 501.42 337.11 504.43 337.11C508.39 337.11 511.61 341.66 511.61 347.27C511.61 352.87 508.41 357.41 504.45 357.42C505.23 361.86 506.57 366.11 508.4 370.08C515.16 361.34 519.2 350.38 519.2 338.46Z" fill="black"/><path d="M433.68 351.84C434.05 353.9 433.35 355.75 432.13 355.98C430.9 356.2 429.6 354.71 429.23 352.64C428.86 350.58 429.55 348.73 430.78 348.51C432.01 348.29 433.31 349.78 433.68 351.84Z" fill="black"/><path d="M453.05 349.33C453.42 351.39 452.73 353.25 451.5 353.47C450.28 353.69 448.98 352.2 448.61 350.13C448.24 348.07 448.93 346.22 450.16 346C451.38 345.78 452.68 347.27 453.05 349.33Z" fill="black"/><path d="M437.15 368.56C437.15 368.56 444.19 372.9 450.83 366.94" stroke="black" stroke-miterlimit="10" stroke-linecap="round" stroke-linejoin="round"/><path d="M434.85 988.32C434.85 988.32 427.44 976.07 480.54 964.69C480.54 964.69 485.42 967.21 488.49 975.52C488.49 975.52 534.55 981.85 544.13 971.91C544.13 971.91 550.45 975.66 547.2 988.32H434.85Z" fill="#D2A465"/><path d="M540.33 953.69C529.2 954.86 506.22 956.78 491.32 954.6L491.31 954.61C491.31 954.61 492.14 960.72 491.31 965.59L482.78 966.41C484.46 968 486.76 970.85 488.49 975.53C488.49 975.53 534.55 981.85 544.13 971.91C544.13 971.91 539.61 968.89 540.33 953.69Z" fill="#FFD2C2"/><path d="M491.32 954.6L491.31 954.61C491.31 954.61 491.48 955.88 491.59 957.73C503.93 960.93 526.42 959.63 540.28 958.37C540.25 956.95 540.25 955.41 540.33 953.69C529.2 954.86 506.22 956.78 491.32 954.6Z" fill="#DDB3A4"/><path d="M480.54 964.69C480.54 964.69 481.48 965.17 482.78 966.41L491.31 965.59C492.14 960.71 491.32 954.61 491.32 954.61C491.33 954.61 486.07 953.67 483.98 952.95L483.8 949.39C473.57 959.68 462.66 961.62 462.66 961.62C456.7 961.8 452.18 955.6 452.18 955.6C452.18 955.6 447.31 960.89 424.19 968.12C401.07 975.34 410.28 988.33 410.28 988.33H434.84C434.84 988.33 427.44 976.07 480.54 964.69Z" fill="#D2A465"/><path d="M491.31 965.59C491.63 963.69 491.7 961.6 491.67 959.76L491.31 959.73C491.31 959.73 446.85 960.85 433.52 973.19C420.19 985.52 426.67 988.32 426.67 988.32H434.85C434.85 988.32 427.44 976.07 480.55 964.69C480.55 964.69 481.48 965.17 482.78 966.41L491.31 965.59Z" fill="#B49162"/><path d="M482.54 924.2C471.9 927.71 461.78 929.63 455.83 930.54C455.83 930.54 461.04 943.92 461.04 947.17C461.04 950.42 452.18 955.6 452.18 955.6C452.18 955.6 456.7 961.8 462.67 961.62C462.67 961.62 473.57 959.68 483.8 949.39L482.54 924.2Z" fill="#FFD2C2"/><path d="M482.54 924.2C471.9 927.71 461.78 929.63 455.83 930.54C455.83 930.54 457.16 933.97 458.48 937.78C465.14 936.52 473.97 934.46 482.9 931.23L482.54 924.2Z" fill="#DDB3A4"/></svg>