<svg xmlns="http://www.w3.org/2000/svg" width="142" height="39" viewBox="0 0 142 39" fill="none"><path d="M130.93 20.14L135.3 9.6H142L129.01 39H122.31L127.6 27.02L119.94 9.6H126.64L130.93 20.14ZM46.57 9.12C52.45 9.12 57.23 13.6 57.23 19.7C57.23 25.8 52.53 30.29 46.57 30.29C40.61 30.29 35.91 25.77 35.91 19.7C35.91 13.6 40.68 9.12 46.57 9.12ZM85.29 9.12C87.88 9.12 89.8 10.22 91.1 11.87V9.6H97.39L97.35 29.81H91.06V27.64C89.76 29.22 87.91 30.29 85.32 30.29C80.14 30.29 76.14 25.95 76.14 19.7C76.14 13.42 80.21 9.12 85.29 9.12ZM23.16 10.04H11.61V14.12H22.12V20.07H11.61V29.81H5.31V14.72C1.66 13.74 -0.63 10.09 0.15 6.37C2.56 6.87 4.43 8.5 5.31 10.59V4.08H23.16V10.04ZM32.59 29.81H26.3V1.51H32.59V29.81ZM72.79 9.12C73.27 9.12 73.64 9.16 73.93 9.23V15.66C73.53 15.62 73.27 15.59 72.67 15.59C69.71 15.59 66.86 16.47 66.86 21.06V29.81H60.57V9.6H66.86V12.72C68.12 10.26 70.19 9.12 72.79 9.12ZM107.39 29.81H101.09V1.51H107.39V29.81ZM122.31 0C122.92 3.37 120.72 6.59 117.36 7.29V29.81H111.07V1.51H117.36V4.37C118.03 2.18 119.88 0.44 122.31 0ZM46.57 15.07C44.13 15.07 42.27 16.91 42.27 19.7C42.27 22.53 44.16 24.33 46.57 24.33C49.01 24.33 50.86 22.53 50.86 19.7C50.86 16.91 49.01 15.07 46.57 15.07ZM86.8 15.07C84.36 15.07 82.51 16.91 82.51 19.7C82.51 22.53 84.4 24.33 86.8 24.33C89.25 24.33 91.1 22.53 91.1 19.7C91.1 16.91 89.25 15.07 86.8 15.07Z" fill="#2E2E2E"/></svg>