<svg xmlns="http://www.w3.org/2000/svg" width="169" height="290" viewBox="0 0 169 290" fill="none"><path d="M125.93 289.4H47.56L35.56 192.63H137.93L125.93 289.4Z" fill="#A8C686"/><path d="M39.04 220.65H134.46L131.93 241.02H41.89L39.04 220.65Z" fill="white"/><path d="M43.3 255.05H130.19L129.44 261.14H44.06L43.3 255.05Z" fill="white"/><path d="M84.43 73.6C83.59 74.78 85.8 18.19 110.5 4.47C135.2 -9.25 157.61 11.33 143.89 29.62C130.17 47.92 114.62 31.52 84.43 73.6Z" fill="#577148"/><path d="M84.43 92.29C84.43 92.29 83.51 39.69 48.3 25.97C13.08 12.24 19.72 54.32 39.04 55.24C58.36 56.15 84.43 72.16 84.43 92.29Z" fill="#577148"/><path d="M84.43 105.55C84.43 105.55 95.86 52.04 140.69 52.95C185.51 53.87 167.67 83.6 140.69 82.22C113.7 80.85 106.38 72.16 84.43 105.55Z" fill="#577148"/><path d="M84.29 125.68C85.33 127.72 78.94 84.97 40.98 83.14C3.02 81.31 8.63 114.24 23.2 114.24C37.78 114.24 65.85 89.54 84.29 125.68Z" fill="#577148"/><path d="M84.43 153.12C84.43 153.12 85.34 126.59 59.73 123.39C34.12 120.19 51.66 142.41 63.85 136.65C76.03 130.9 84.43 153.12 84.43 153.12Z" fill="#577148"/><path d="M84.29 162.27C84.29 162.27 86.31 120.19 130.19 116.07C174.08 111.95 160.36 146.26 139.77 143.51C119.19 140.77 103.81 131.9 84.29 162.27Z" fill="#577148"/><path d="M84.29 177.36C84.29 177.36 75.52 144.54 39.04 139C2.56 133.45 -7.5 154.95 5.3 164.1C18.11 173.24 21.05 159.12 46.56 157.73C72.08 156.33 84.29 177.36 84.29 177.36Z" fill="#577148"/><path d="M84.29 186.96C83.59 188.16 88.63 159.52 108.71 153.12C128.79 146.72 142.51 149.46 133.13 167.76C123.76 186.05 106.1 149.46 84.29 186.96Z" fill="#577148"/><path d="M84.29 136.65C84.29 136.65 93.12 92.74 111.87 89.54C130.62 86.34 142.06 103.26 124.22 110.58C106.39 117.9 101.98 106.92 84.29 136.65Z" fill="#577148"/><path d="M84.43 192.63V71.7C84.43 71.7 90.96 32.72 119.2 23.25" stroke="#A8C686" stroke-width="1.34" stroke-miterlimit="10" stroke-linecap="round" stroke-linejoin="round"/><path d="M138.72 67.36C138.97 67.36 96.78 63.47 84.43 105.55" stroke="#A8C686" stroke-width="1.34" stroke-miterlimit="10" stroke-linecap="round" stroke-linejoin="round"/><path d="M42.14 40.6C45.32 40.6 74.48 51.43 84.43 83.07" stroke="#A8C686" stroke-width="1.34" stroke-miterlimit="10" stroke-linecap="round" stroke-linejoin="round"/><path d="M137.93 129.79C137.93 129.79 97.52 120.3 84.29 162.27" stroke="#A8C686" stroke-width="1.34" stroke-miterlimit="10" stroke-linecap="round" stroke-linejoin="round"/><path d="M16.17 151.4C16.17 151.4 65.28 134.06 84.29 177.36" stroke="#A8C686" stroke-width="1.34" stroke-miterlimit="10" stroke-linecap="round" stroke-linejoin="round"/><path d="M119.2 162.27C119.2 162.27 95.39 156.44 84.29 186.96" stroke="#A8C686" stroke-width="1.34" stroke-miterlimit="10" stroke-linecap="round" stroke-linejoin="round"/><path d="M28.51 97.16C28.51 97.16 74.83 86.95 84.29 125.68" stroke="#A8C686" stroke-width="1.34" stroke-miterlimit="10" stroke-linecap="round" stroke-linejoin="round"/><path d="M116.18 100.63C116.18 100.63 95.81 102.35 84.29 136.65" stroke="#A8C686" stroke-width="1.34" stroke-miterlimit="10" stroke-linecap="round" stroke-linejoin="round"/><path d="M58.36 128.87C58.36 128.87 83.05 133.87 84.43 153.12" stroke="#A8C686" stroke-width="1.34" stroke-miterlimit="10" stroke-linecap="round" stroke-linejoin="round"/></svg>