<svg width="288" height="36" viewBox="0 0 288 36" fill="none" xmlns="http://www.w3.org/2000/svg">
<path d="M33.9499 5.82968C33.938 5.62715 33.8538 5.43608 33.7131 5.29261C33.5724 5.14914 33.3851 5.06321 33.1865 5.05106C26.2711 4.63616 20.728 6.76873 18.3591 10.7573C16.7821 13.414 16.816 16.6598 18.431 19.7467C17.3954 20.9556 16.6737 22.4102 16.332 23.9772L13.6472 21.2375C14.7523 19.0109 14.7455 16.6806 13.6038 14.7582C11.8668 11.8332 7.83008 10.2649 2.79947 10.5692C2.60068 10.5813 2.41317 10.6675 2.27247 10.8112C2.13177 10.955 2.04766 11.1464 2.03607 11.3492C1.74047 16.4787 3.27541 20.5958 6.14327 22.3674C7.07729 22.9496 8.15105 23.2569 9.2457 23.2553C10.3793 23.2433 11.4942 22.9591 12.5 22.4255L16.1014 26.0876V30.1702C16.1014 30.3903 16.1872 30.6013 16.3397 30.757C16.4923 30.9126 16.6992 31 16.915 31C17.1308 31 17.3377 30.9126 17.4903 30.757C17.6429 30.6013 17.7286 30.3903 17.7286 30.1702V26.0918C17.7232 24.1908 18.385 22.3507 19.5944 20.9042C21.1144 21.7243 22.6751 22.1365 24.1802 22.1365C25.6524 22.1414 27.0973 21.7312 28.3552 20.9512C32.2658 18.5379 34.3567 12.8829 33.9499 5.82968ZM6.98668 20.9471C4.77511 19.5821 3.54389 16.3404 3.62661 12.1914C7.69449 12.1015 10.8688 13.3586 12.2071 15.6143C12.9773 16.9102 13.0424 18.4328 12.4159 19.9831L8.8118 16.3058C8.65914 16.1501 8.45209 16.0626 8.23619 16.0626C8.0203 16.0626 7.81325 16.1501 7.66059 16.3058C7.50793 16.4615 7.42216 16.6727 7.42216 16.8929C7.42216 17.1131 7.50793 17.3242 7.66059 17.4799L11.2702 21.1601C9.75012 21.799 8.25721 21.734 6.98668 20.9471ZM27.5132 19.5337C25.5145 20.7673 23.1551 20.8033 20.7781 19.6581L28.339 11.948C28.4146 11.8709 28.4745 11.7794 28.5154 11.6786C28.5563 11.5779 28.5774 11.47 28.5774 11.3609C28.5774 11.2519 28.5563 11.1439 28.5154 11.0432C28.4745 10.9425 28.4146 10.8509 28.339 10.7738C28.2634 10.6968 28.1736 10.6356 28.0749 10.5939C27.9761 10.5521 27.8703 10.5307 27.7634 10.5307C27.6565 10.5307 27.5506 10.5521 27.4519 10.5939C27.3531 10.6356 27.2634 10.6968 27.1878 10.7738L19.6269 18.4854C18.5042 16.061 18.5422 13.6546 19.749 11.6175C21.7178 8.29831 26.4013 6.47553 32.3594 6.6733C32.5533 12.7446 30.7648 17.5242 27.5132 19.5337Z" fill="#2E2E2E"/>
<path d="M88.5 12.75H114.75M94.6665 6V3M108.542 6V3M109.5 6H93.75C92.3576 6 91.0223 6.55312 90.0377 7.53769C89.0531 8.52226 88.5 9.85761 88.5 11.25V25.5C88.5 26.8924 89.0531 28.2277 90.0377 29.2123C91.0223 30.1969 92.3576 30.75 93.75 30.75H109.5C110.892 30.75 112.228 30.1969 113.212 29.2123C114.197 28.2277 114.75 26.8924 114.75 25.5V11.25C114.75 9.85761 114.197 8.52226 113.212 7.53769C112.228 6.55312 110.892 6 109.5 6Z" stroke="#2E2E2E" stroke-width="2" stroke-linecap="round" stroke-linejoin="round"/>
<path d="M191.981 10.5C191.714 13.8044 188.99 16.5 186 16.5C183.01 16.5 180.281 13.805 180.019 10.5C179.747 7.0625 182.398 4.5 186 4.5C189.602 4.5 192.253 7.125 191.981 10.5Z" stroke="#2E2E2E" stroke-width="2" stroke-linecap="round" stroke-linejoin="round"/>
<path d="M186 19.5C179.883 19.5 173.674 22.875 172.525 29.2453C172.387 30.0131 172.821 30.75 173.625 30.75H198.375C199.18 30.75 199.614 30.0131 199.476 29.2453C198.326 22.875 192.117 19.5 186 19.5Z" stroke="#2E2E2E" stroke-width="2" stroke-miterlimit="10"/>
<path d="M269.907 4.5C267.122 4.5 264.452 5.60625 262.483 7.57538C260.513 9.54451 259.407 12.2152 259.407 15V20.292C259.407 20.5247 259.354 20.7542 259.25 20.9625L256.674 26.112C256.548 26.3636 256.489 26.6431 256.502 26.9241C256.514 27.2051 256.599 27.4782 256.746 27.7175C256.894 27.9568 257.101 28.1543 257.347 28.2912C257.592 28.4282 257.869 28.5 258.15 28.5H281.664C281.946 28.5 282.222 28.4282 282.468 28.2912C282.714 28.1543 282.92 27.9568 283.068 27.7175C283.216 27.4782 283.3 27.2051 283.313 26.9241C283.325 26.6431 283.266 26.3636 283.14 26.112L280.566 20.9625C280.462 20.7544 280.407 20.5248 280.407 20.292V15C280.407 12.2152 279.301 9.54451 277.332 7.57538C275.363 5.60625 272.692 4.5 269.907 4.5ZM269.907 31.5C268.976 31.5005 268.068 31.2122 267.308 30.6749C266.547 30.1376 265.973 29.3777 265.662 28.5H274.152C273.842 29.3777 273.267 30.1376 272.507 30.6749C271.746 31.2122 270.838 31.5005 269.907 31.5Z" stroke="#2E2E2E" stroke-width="2"/>
</svg>
