<svg width="36" height="36" viewBox="0 0 36 36" fill="none" xmlns="http://www.w3.org/2000/svg">
<path d="M18.0929 4.5C20.8777 4.5 23.5484 5.60625 25.5175 7.57538C27.4866 9.54451 28.5929 12.2152 28.5929 15V20.292C28.5927 20.5247 28.6466 20.7542 28.7504 20.9625L31.3259 26.112C31.4517 26.3636 31.5111 26.6431 31.4985 26.9241C31.4858 27.2051 31.4015 27.4782 31.2537 27.7175C31.1058 27.9568 30.8992 28.1543 30.6535 28.2912C30.4078 28.4282 30.1312 28.5 29.8499 28.5H6.33588C6.05459 28.5 5.77797 28.4282 5.53228 28.2912C5.28658 28.1543 5.07998 27.9568 4.93209 27.7175C4.7842 27.4782 4.69994 27.2051 4.6873 26.9241C4.67466 26.6431 4.73407 26.3636 4.85988 26.112L7.43388 20.9625C7.53819 20.7544 7.59263 20.5248 7.59288 20.292V15C7.59288 12.2152 8.69913 9.54451 10.6683 7.57538C12.6374 5.60625 15.3081 4.5 18.0929 4.5ZM18.0929 31.5C19.0239 31.5005 19.9321 31.2122 20.6924 30.6749C21.4526 30.1376 22.0276 29.3777 22.3379 28.5H13.8479C14.1582 29.3777 14.7331 30.1376 15.4934 30.6749C16.2537 31.2122 17.1619 31.5005 18.0929 31.5Z" stroke="#2E2E2E" stroke-width="2"/>
</svg>
