<svg width="36" height="36" viewBox="0 0 36 36" fill="none" xmlns="http://www.w3.org/2000/svg">
<path d="M33.9499 5.82968C33.938 5.62715 33.8538 5.43608 33.7131 5.29261C33.5724 5.14914 33.3851 5.06321 33.1865 5.05106C26.2711 4.63616 20.728 6.76873 18.3591 10.7573C16.7821 13.414 16.816 16.6598 18.431 19.7467C17.3954 20.9556 16.6737 22.4102 16.332 23.9772L13.6472 21.2375C14.7523 19.0109 14.7455 16.6806 13.6038 14.7582C11.8668 11.8332 7.83008 10.2649 2.79947 10.5692C2.60068 10.5813 2.41317 10.6675 2.27247 10.8112C2.13177 10.955 2.04766 11.1464 2.03607 11.3492C1.74047 16.4787 3.27541 20.5958 6.14327 22.3674C7.07729 22.9496 8.15105 23.2569 9.2457 23.2553C10.3793 23.2433 11.4942 22.9591 12.5 22.4255L16.1014 26.0876V30.1702C16.1014 30.3903 16.1872 30.6013 16.3397 30.757C16.4923 30.9126 16.6992 31 16.915 31C17.1308 31 17.3377 30.9126 17.4903 30.757C17.6429 30.6013 17.7286 30.3903 17.7286 30.1702V26.0918C17.7232 24.1908 18.385 22.3507 19.5944 20.9042C21.1144 21.7243 22.6751 22.1365 24.1802 22.1365C25.6524 22.1414 27.0973 21.7312 28.3552 20.9512C32.2658 18.5379 34.3567 12.8829 33.9499 5.82968ZM6.98668 20.9471C4.77511 19.5821 3.54389 16.3404 3.62661 12.1914C7.69449 12.1015 10.8688 13.3586 12.2071 15.6143C12.9773 16.9102 13.0424 18.4328 12.4159 19.9831L8.8118 16.3058C8.65914 16.1501 8.45209 16.0626 8.23619 16.0626C8.0203 16.0626 7.81325 16.1501 7.66059 16.3058C7.50793 16.4615 7.42216 16.6727 7.42216 16.8929C7.42216 17.1131 7.50793 17.3242 7.66059 17.4799L11.2702 21.1601C9.75012 21.799 8.25721 21.734 6.98668 20.9471ZM27.5132 19.5337C25.5145 20.7673 23.1551 20.8033 20.7781 19.6581L28.339 11.948C28.4146 11.8709 28.4745 11.7794 28.5154 11.6786C28.5563 11.5779 28.5774 11.47 28.5774 11.3609C28.5774 11.2519 28.5563 11.1439 28.5154 11.0432C28.4745 10.9425 28.4146 10.8509 28.339 10.7738C28.2634 10.6968 28.1736 10.6356 28.0749 10.5939C27.9761 10.5521 27.8703 10.5307 27.7634 10.5307C27.6565 10.5307 27.5506 10.5521 27.4519 10.5939C27.3531 10.6356 27.2634 10.6968 27.1878 10.7738L19.6269 18.4854C18.5042 16.061 18.5422 13.6546 19.749 11.6175C21.7178 8.29831 26.4013 6.47553 32.3594 6.6733C32.5533 12.7446 30.7648 17.5242 27.5132 19.5337Z" fill="#2E2E2E"/>
</svg>
