<svg width="36" height="36" viewBox="0 0 36 36" fill="none" xmlns="http://www.w3.org/2000/svg">
<path d="M2.05006 5.82968C2.06197 5.62715 2.14623 5.43608 2.2869 5.29261C2.42756 5.14914 2.61489 5.06321 2.81347 5.05106C9.72886 4.63616 15.272 6.76873 17.6409 10.7573C19.2179 13.414 19.184 16.6598 17.569 19.7467C18.6046 20.9556 19.3263 22.4102 19.668 23.9772L22.3528 21.2375C21.2477 19.0109 21.2545 16.6806 22.3962 14.7582C24.1332 11.8332 28.1699 10.2649 33.2005 10.5692C33.3993 10.5813 33.5868 10.6675 33.7275 10.8112C33.8682 10.955 33.9523 11.1464 33.9639 11.3492C34.2595 16.4787 32.7246 20.5958 29.8567 22.3674C28.9227 22.9496 27.849 23.2569 26.7543 23.2553C25.6207 23.2433 24.5058 22.9591 23.5 22.4255L19.8986 26.0876V30.1702C19.8986 30.3903 19.8128 30.6013 19.6603 30.757C19.5077 30.9126 19.3008 31 19.085 31C18.8692 31 18.6623 30.9126 18.5097 30.757C18.3571 30.6013 18.2714 30.3903 18.2714 30.1702V26.0918C18.2768 24.1908 17.615 22.3507 16.4056 20.9042C14.8856 21.7243 13.3249 22.1365 11.8198 22.1365C10.3476 22.1414 8.90272 21.7312 7.64475 20.9512C3.73417 18.5379 1.64328 12.8829 2.05006 5.82968ZM29.0133 20.9471C31.2249 19.5821 32.4561 16.3404 32.3734 12.1914C28.3055 12.1015 25.1312 13.3586 23.7929 15.6143C23.0227 16.9102 22.9576 18.4328 23.5841 19.9831L27.1882 16.3058C27.3409 16.1501 27.5479 16.0626 27.7638 16.0626C27.9797 16.0626 28.1868 16.1501 28.3394 16.3058C28.4921 16.4615 28.5778 16.6727 28.5778 16.8929C28.5778 17.1131 28.4921 17.3242 28.3394 17.4799L24.7298 21.1601C26.2499 21.799 27.7428 21.734 29.0133 20.9471ZM8.4868 19.5337C10.4855 20.7673 12.8449 20.8033 15.2219 19.6581L7.66103 11.948C7.58544 11.8709 7.52547 11.7794 7.48457 11.6786C7.44366 11.5779 7.4226 11.47 7.4226 11.3609C7.4226 11.2519 7.44366 11.1439 7.48457 11.0432C7.52547 10.9425 7.58544 10.8509 7.66103 10.7738C7.73661 10.6968 7.82635 10.6356 7.92511 10.5939C8.02388 10.5521 8.12973 10.5307 8.23663 10.5307C8.34353 10.5307 8.44938 10.5521 8.54815 10.5939C8.64691 10.6356 8.73665 10.6968 8.81224 10.7738L16.3731 18.4854C17.4958 16.061 17.4578 13.6546 16.251 11.6175C14.2822 8.29831 9.59869 6.47553 3.64061 6.6733C3.4467 12.7446 5.23521 17.5242 8.4868 19.5337Z" fill="#2E2E2E"/>
</svg>
