<svg width="52" height="52" viewBox="0 0 52 52" fill="none" xmlns="http://www.w3.org/2000/svg">
<rect width="52" height="52" rx="8" fill="#A8C686"/>
<path d="M41.9499 13.8297C41.938 13.6271 41.8538 13.4361 41.7131 13.2926C41.5724 13.1491 41.3851 13.0632 41.1865 13.0511C34.2711 12.6362 28.728 14.7687 26.3591 18.7573C24.7821 21.414 24.816 24.6598 26.431 27.7467C25.3954 28.9556 24.6737 30.4102 24.332 31.9772L21.6472 29.2375C22.7523 27.0109 22.7455 24.6806 21.6038 22.7582C19.8668 19.8332 15.8301 18.2649 10.7995 18.5692C10.6007 18.5813 10.4132 18.6675 10.2725 18.8112C10.1318 18.955 10.0477 19.1464 10.0361 19.3492C9.74047 24.4787 11.2754 28.5958 14.1433 30.3674C15.0773 30.9496 16.151 31.2569 17.2457 31.2553C18.3793 31.2433 19.4942 30.9591 20.5 30.4255L24.1014 34.0876V38.1702C24.1014 38.3903 24.1872 38.6013 24.3397 38.757C24.4923 38.9126 24.6992 39 24.915 39C25.1308 39 25.3377 38.9126 25.4903 38.757C25.6429 38.6013 25.7286 38.3903 25.7286 38.1702V34.0918C25.7232 32.1908 26.385 30.3507 27.5944 28.9042C29.1144 29.7243 30.6751 30.1365 32.1802 30.1365C33.6524 30.1414 35.0973 29.7312 36.3552 28.9512C40.2658 26.5379 42.3567 20.8829 41.9499 13.8297ZM14.9867 28.9471C12.7751 27.5821 11.5439 24.3404 11.6266 20.1914C15.6945 20.1015 18.8688 21.3586 20.2071 23.6143C20.9773 24.9102 21.0424 26.4328 20.4159 27.9831L16.8118 24.3058C16.6591 24.1501 16.4521 24.0626 16.2362 24.0626C16.0203 24.0626 15.8132 24.1501 15.6606 24.3058C15.5079 24.4615 15.4222 24.6727 15.4222 24.8929C15.4222 25.1131 15.5079 25.3242 15.6606 25.4799L19.2702 29.1601C17.7501 29.799 16.2572 29.734 14.9867 28.9471ZM35.5132 27.5337C33.5145 28.7673 31.1551 28.8033 28.7781 27.6581L36.339 19.948C36.4146 19.8709 36.4745 19.7794 36.5154 19.6786C36.5563 19.5779 36.5774 19.47 36.5774 19.3609C36.5774 19.2519 36.5563 19.1439 36.5154 19.0432C36.4745 18.9425 36.4146 18.8509 36.339 18.7738C36.2634 18.6968 36.1736 18.6356 36.0749 18.5939C35.9761 18.5521 35.8703 18.5307 35.7634 18.5307C35.6565 18.5307 35.5506 18.5521 35.4519 18.5939C35.3531 18.6356 35.2634 18.6968 35.1878 18.7738L27.6269 26.4854C26.5042 24.061 26.5422 21.6546 27.749 19.6175C29.7178 16.2983 34.4013 14.4755 40.3594 14.6733C40.5533 20.7446 38.7648 25.5242 35.5132 27.5337Z" fill="white"/>
</svg>
