<svg width="36" height="36" viewBox="0 0 36 36" fill="none" xmlns="http://www.w3.org/2000/svg">
<path d="M4.5 12.75H30.75M10.6665 6V3M24.5415 6V3M25.5 6H9.75C8.35761 6 7.02226 6.55312 6.03769 7.53769C5.05312 8.52226 4.5 9.85761 4.5 11.25V25.5C4.5 26.8924 5.05312 28.2277 6.03769 29.2123C7.02226 30.1969 8.35761 30.75 9.75 30.75H25.5C26.8924 30.75 28.2277 30.1969 29.2123 29.2123C30.1969 28.2277 30.75 26.8924 30.75 25.5V11.25C30.75 9.85761 30.1969 8.52226 29.2123 7.53769C28.2277 6.55312 26.8924 6 25.5 6Z" stroke="#2E2E2E" stroke-width="2" stroke-linecap="round" stroke-linejoin="round"/>
</svg>
