<svg width="36" height="36" viewBox="0 0 36 36" fill="none" xmlns="http://www.w3.org/2000/svg">
<path d="M31.5 12.75H5.25M25.3335 6V3M11.4585 6V3M10.5 6H26.25C27.6424 6 28.9777 6.55312 29.9623 7.53769C30.9469 8.52226 31.5 9.85761 31.5 11.25V25.5C31.5 26.8924 30.9469 28.2277 29.9623 29.2123C28.9777 30.1969 27.6424 30.75 26.25 30.75H10.5C9.10761 30.75 7.77225 30.1969 6.78769 29.2123C5.80312 28.2277 5.25 26.8924 5.25 25.5V11.25C5.25 9.85761 5.80312 8.52226 6.78769 7.53769C7.77225 6.55312 9.10761 6 10.5 6Z" stroke="#2E2E2E" stroke-width="2" stroke-linecap="round" stroke-linejoin="round"/>
</svg>
