<svg width="50" height="50" viewBox="0 0 50 50" fill="none" xmlns="http://www.w3.org/2000/svg">
<rect x="1" y="1" width="48" height="48" rx="24" stroke="#3F363B" stroke-width="2"/>
<path fill-rule="evenodd" clip-rule="evenodd" d="M12.4114 24.7572C19.1164 21.836 23.5874 19.9101 25.8245 18.9797C32.2119 16.3229 33.5391 15.8614 34.4042 15.8462C34.5945 15.8428 35.0199 15.89 35.2954 16.1136C35.5281 16.3024 35.5921 16.5575 35.6228 16.7365C35.6534 16.9155 35.6916 17.3233 35.6612 17.6419C35.3151 21.2787 33.8174 30.1044 33.0554 34.1777C32.733 35.9013 32.0982 36.4792 31.4836 36.5358C30.148 36.6587 29.1337 35.6531 27.8401 34.8051C25.8158 33.4781 24.6722 32.6521 22.7072 31.3572C20.4364 29.8608 21.9085 29.0383 23.2026 27.6942C23.5413 27.3424 29.4262 21.9896 29.5401 21.504C29.5544 21.4433 29.5676 21.2169 29.4331 21.0974C29.2986 20.9779 29.1002 21.0188 28.9569 21.0513C28.7539 21.0973 25.52 23.2348 19.2554 27.4636C18.3375 28.0939 17.506 28.401 16.7611 28.3849C15.9399 28.3672 14.3602 27.9206 13.1859 27.5389C11.7455 27.0707 10.6007 26.8231 10.7004 26.028C10.7523 25.6138 11.3227 25.1902 12.4114 24.7572Z" fill="#3F363B"/>
</svg>
